<svg width="8" height="12" xmlns="http://www.w3.org/2000/svg" fill="none">

 <g>
  <title>Layer 1</title>
  <path stroke="null" id="svg_15" d="m1.87756,3.59706c0.74896,0 1.45315,0.31642 1.98214,0.89043c0.53021,0.57428 0.82172,1.33945 0.82172,2.15373l1.15459,0c0,-2.36537 -1.77604,-4.28934 -3.95869,-4.28934l0,1.24518l0.00024,0zm0.00146,-2.20782c2.67003,0 4.84172,2.35671 4.84172,5.25329l1.1541,0c0,-3.58325 -2.68974,-6.49874 -5.99606,-6.49874l0,1.24544l0.00024,0zm1.59623,4.38282c0,0.47659 -0.35793,0.86312 -0.79933,0.86312s-0.79933,-0.38653 -0.79933,-0.86312c0,-0.47607 0.35793,-0.86259 0.79933,-0.86259s0.79933,0.38626 0.79933,0.86259z" fill="#F3F4F6"/>
 </g>
</svg>